<?xml version="1.0" encoding="UTF-8"?><svg id="Calque_1" xmlns="http://www.w3.org/2000/svg" viewBox="0 0 230.22 227.06"><defs><style>.cls-1{fill:#8a69d4;}</style></defs><path class="cls-1" d="M196.46,148.46c6.34,14.8,11.77,30.5,4.52,46.07-3.72,8-10.48,15.62-17.74,20.76-19.78,14.01-42.8,9.56-68.32-11.48-21.56,23.6-44.41,29.41-65.35,16.63-23.15-14.12-26.74-32.87-13.55-70.71C-1.17,133.27-4.47,104.61,3.62,83.43c10.16-26.63,29.71-35.65,61.37-27.88C75.54,15.99,92.49-1.28,119.47,.07c30,1.5,46.93,18.99,53.76,56.41,28.75-.58,51.62,8.63,56.54,41.01,3.05,20.04-9.33,38.32-33.31,50.97Z"/></svg>