{
    "asset" : {
        "generator" : "Khronos glTF Blender I/O v1.8.19",
        "version" : "2.0"
    },
    "scene" : 0,
    "scenes" : [
        {
            "name" : "Scene",
            "nodes" : [
                0
            ]
        }
    ],
    "nodes" : [
        {
            "mesh" : 0,
            "name" : "Cloud",
            "rotation" : [
                0,
                0.7424173951148987,
                0,
                0.6699376106262207
            ],
            "scale" : [
                0.821073591709137,
                0.821073591709137,
                0.821073591709137
            ],
            "translation" : [
                -0.12013037502765656,
                0.32196617126464844,
                -1.9761669635772705
            ]
        }
    ],
    "meshes" : [
        {
            "name" : "Sphere.004",
            "primitives" : [
                {
                    "attributes" : {
                        "POSITION" : 0,
                        "NORMAL" : 1,
                        "TEXCOORD_0" : 2
                    },
                    "indices" : 3
                }
            ]
        }
    ],
    "accessors" : [
        {
            "bufferView" : 0,
            "componentType" : 5126,
            "count" : 3281,
            "max" : [
                1.1490809917449951,
                1,
                2.5243306159973145
            ],
            "min" : [
                -1.1370705366134644,
                -0.5842353701591492,
                -1.6761959791183472
            ],
            "type" : "VEC3"
        },
        {
            "bufferView" : 1,
            "componentType" : 5126,
            "count" : 3281,
            "type" : "VEC3"
        },
        {
            "bufferView" : 2,
            "componentType" : 5126,
            "count" : 3281,
            "type" : "VEC2"
        },
        {
            "bufferView" : 3,
            "componentType" : 5123,
            "count" : 13848,
            "type" : "SCALAR"
        }
    ],
    "bufferViews" : [
        {
            "buffer" : 0,
            "byteLength" : 39372,
            "byteOffset" : 0
        },
        {
            "buffer" : 0,
            "byteLength" : 39372,
            "byteOffset" : 39372
        },
        {
            "buffer" : 0,
            "byteLength" : 26248,
            "byteOffset" : 78744
        },
        {
            "buffer" : 0,
            "byteLength" : 27696,
            "byteOffset" : 104992
        }
    ],
    "buffers" : [
        {
            "byteLength" : 132688,
            "uri" : "data:application/octet-stream;base64,"
        }
    ]
}
