{
    "asset" : {
        "generator" : "Khronos glTF Blender I/O v1.8.19",
        "version" : "2.0"
    },
    "scene" : 0,
    "scenes" : [
        {
            "name" : "Scene",
            "nodes" : [
                0,
                1,
                2,
                3,
                4,
                5,
                6,
                7,
                8,
                9
            ]
        }
    ],
    "nodes" : [
        {
            "mesh" : 0,
            "name" : "Roundcube.003",
            "rotation" : [
                0.008373642340302467,
                -0.9992506504058838,
                0.037581052631139755,
                -0.003986083436757326
            ],
            "scale" : [
                0.044506751000881195,
                0.0445067398250103,
                0.0445067435503006
            ],
            "translation" : [
                -1.1999504566192627,
                2.0957305431365967,
                -1.1953153610229492
            ]
        },
        {
            "mesh" : 1,
            "name" : "Roundcube.002",
            "rotation" : [
                0.0010557170026004314,
                0.9848792552947998,
                -0.038219135254621506,
                0.16897056996822357
            ],
            "scale" : [
                0.0445067323744297,
                0.044506751000881195,
                0.044506754726171494
            ],
            "translation" : [
                -1.3049850463867188,
                2.09588885307312,
                -1.2118898630142212
            ]
        },
        {
            "mesh" : 2,
            "name" : "Roundcube.001",
            "rotation" : [
                -8.936135418480262e-05,
                -0.9961790442466736,
                -0.009417922236025333,
                -0.08682548999786377
            ],
            "scale" : [
                0.2405434101819992,
                0.2405434101819992,
                0.2405434250831604
            ],
            "translation" : [
                -1.230764627456665,
                2.051661491394043,
                -1.350635051727295
            ]
        },
        {
            "mesh" : 3,
            "name" : "mouth.001",
            "rotation" : [
                -0.5518818497657776,
                0.5303908586502075,
                0.4625380039215088,
                -0.44740426540374756
            ],
            "scale" : [
                0.04729435592889786,
                0.04729435220360756,
                0.04026370123028755
            ],
            "translation" : [
                -1.2503316402435303,
                2.065675735473633,
                -1.2277635335922241
            ]
        },
        {
            "mesh" : 4,
            "name" : "Cube.007",
            "rotation" : [
                0.07990238815546036,
                -0.03525713458657265,
                -0.862761378288269,
                0.49801161885261536
            ],
            "scale" : [
                0.27601075172424316,
                0.5384453535079956,
                0.1326594352722168
            ],
            "translation" : [
                -1.5030089616775513,
                2.2426419258117676,
                -1.3173800706863403
            ]
        },
        {
            "mesh" : 5,
            "name" : "Cube.005",
            "rotation" : [
                0.05156947299838066,
                -0.07048451900482178,
                -0.4981671869754791,
                0.8626715540885925
            ],
            "scale" : [
                0.2760107219219208,
                0.5384453535079956,
                0.1326594352722168
            ],
            "translation" : [
                -1.5001001358032227,
                1.9089585542678833,
                -1.323222041130066
            ]
        },
        {
            "mesh" : 6,
            "name" : "Cube.004",
            "rotation" : [
                0.009418608620762825,
                -0.08682550489902496,
                -8.991338108899072e-05,
                0.9961791038513184
            ],
            "scale" : [
                0.27601075172424316,
                0.5384454131126404,
                0.1326594352722168
            ],
            "translation" : [
                -1.2289760112762451,
                1.7774885892868042,
                -1.2780970335006714
            ]
        },
        {
            "mesh" : 7,
            "name" : "Cube.002",
            "rotation" : [
                -0.035256192088127136,
                -0.07990175485610962,
                0.4980122148990631,
                0.8627610206604004
            ],
            "scale" : [
                0.27601081132888794,
                0.5384453535079956,
                0.1326594352722168
            ],
            "translation" : [
                -0.9627739191055298,
                1.8943132162094116,
                -1.2291094064712524
            ]
        },
        {
            "mesh" : 8,
            "name" : "Cube.001",
            "rotation" : [
                -0.07048407196998596,
                -0.051568660885095596,
                0.8626717329025269,
                0.4981670081615448
            ],
            "scale" : [
                0.27601078152656555,
                0.5384453535079956,
                0.1326594352722168
            ],
            "translation" : [
                -0.97120600938797,
                2.2234084606170654,
                -1.2243250608444214
            ]
        },
        {
            "mesh" : 9,
            "name" : "Cube",
            "rotation" : [
                -0.08682548999786377,
                -0.009417636319994926,
                0.9961790442466736,
                8.938625251175836e-05
            ],
            "scale" : [
                0.2760107219219208,
                0.5384453535079956,
                0.1326594352722168
            ],
            "translation" : [
                -1.2251840829849243,
                2.381824016571045,
                -1.2659250497817993
            ]
        }
    ],
    "materials" : [
        {
            "doubleSided" : true,
            "name" : "NOIR",
            "pbrMetallicRoughness" : {
                "baseColorFactor" : [
                    0,
                    0,
                    0,
                    1
                ],
                "metallicFactor" : 0,
                "roughnessFactor" : 0.5
            }
        },
        {
            "doubleSided" : true,
            "name" : "Material.006",
            "pbrMetallicRoughness" : {
                "baseColorFactor" : [
                    0.8000000715255737,
                    0.7804015278816223,
                    0.25031590461730957,
                    1
                ],
                "metallicFactor" : 0,
                "roughnessFactor" : 0.5
            }
        },
        {
            "doubleSided" : true,
            "name" : "Material.007",
            "pbrMetallicRoughness" : {
                "baseColorFactor" : [
                    0.800000011920929,
                    0.800000011920929,
                    0.800000011920929,
                    1
                ],
                "metallicFactor" : 0,
                "roughnessFactor" : 0.5
            }
        }
    ],
    "meshes" : [
        {
            "name" : "Mesh",
            "primitives" : [
                {
                    "attributes" : {
                        "POSITION" : 0,
                        "NORMAL" : 1
                    },
                    "indices" : 2,
                    "material" : 0
                }
            ]
        },
        {
            "name" : "Mesh",
            "primitives" : [
                {
                    "attributes" : {
                        "POSITION" : 3,
                        "NORMAL" : 4
                    },
                    "indices" : 2,
                    "material" : 0
                }
            ]
        },
        {
            "name" : "Mesh",
            "primitives" : [
                {
                    "attributes" : {
                        "POSITION" : 5,
                        "NORMAL" : 6
                    },
                    "indices" : 2,
                    "material" : 1
                }
            ]
        },
        {
            "name" : "Torus.001",
            "primitives" : [
                {
                    "attributes" : {
                        "POSITION" : 7,
                        "NORMAL" : 8,
                        "TEXCOORD_0" : 9
                    },
                    "indices" : 10,
                    "material" : 0
                }
            ]
        },
        {
            "name" : "Mesh",
            "primitives" : [
                {
                    "attributes" : {
                        "POSITION" : 11,
                        "NORMAL" : 12,
                        "TEXCOORD_0" : 13
                    },
                    "indices" : 14,
                    "material" : 2
                }
            ]
        },
        {
            "name" : "Mesh",
            "primitives" : [
                {
                    "attributes" : {
                        "POSITION" : 15,
                        "NORMAL" : 16,
                        "TEXCOORD_0" : 17
                    },
                    "indices" : 14,
                    "material" : 2
                }
            ]
        },
        {
            "name" : "Mesh",
            "primitives" : [
                {
                    "attributes" : {
                        "POSITION" : 18,
                        "NORMAL" : 19,
                        "TEXCOORD_0" : 20
                    },
                    "indices" : 14,
                    "material" : 2
                }
            ]
        },
        {
            "name" : "Mesh",
            "primitives" : [
                {
                    "attributes" : {
                        "POSITION" : 21,
                        "NORMAL" : 22,
                        "TEXCOORD_0" : 23
                    },
                    "indices" : 14,
                    "material" : 2
                }
            ]
        },
        {
            "name" : "Mesh",
            "primitives" : [
                {
                    "attributes" : {
                        "POSITION" : 24,
                        "NORMAL" : 25,
                        "TEXCOORD_0" : 26
                    },
                    "indices" : 14,
                    "material" : 2
                }
            ]
        },
        {
            "name" : "Mesh",
            "primitives" : [
                {
                    "attributes" : {
                        "POSITION" : 27,
                        "NORMAL" : 28,
                        "TEXCOORD_0" : 29
                    },
                    "indices" : 14,
                    "material" : 2
                }
            ]
        }
    ],
    "accessors" : [
        {
            "bufferView" : 0,
            "componentType" : 5126,
            "count" : 801,
            "max" : [
                0.9784715175628662,
                0.9784715175628662,
                -0.323743611574173
            ],
            "min" : [
                -0.9784715175628662,
                -0.9784715175628662,
                -0.7530725002288818
            ],
            "type" : "VEC3"
        },
        {
            "bufferView" : 1,
            "componentType" : 5126,
            "count" : 801,
            "type" : "VEC3"
        },
        {
            "bufferView" : 2,
            "componentType" : 5123,
            "count" : 4608,
            "type" : "SCALAR"
        },
        {
            "bufferView" : 3,
            "componentType" : 5126,
            "count" : 801,
            "max" : [
                0.9784715175628662,
                0.9784715175628662,
                -0.323743611574173
            ],
            "min" : [
                -0.9784715175628662,
                -0.9784715175628662,
                -0.7530725002288818
            ],
            "type" : "VEC3"
        },
        {
            "bufferView" : 4,
            "componentType" : 5126,
            "count" : 801,
            "type" : "VEC3"
        },
        {
            "bufferView" : 5,
            "componentType" : 5126,
            "count" : 801,
            "max" : [
                0.9784715175628662,
                0.9784715175628662,
                -0.323743611574173
            ],
            "min" : [
                -0.9784715175628662,
                -0.9784715175628662,
                -0.7530725002288818
            ],
            "type" : "VEC3"
        },
        {
            "bufferView" : 6,
            "componentType" : 5126,
            "count" : 801,
            "type" : "VEC3"
        },
        {
            "bufferView" : 7,
            "componentType" : 5126,
            "count" : 297,
            "max" : [
                1.25,
                1.5165467262268066,
                1.2074074745178223
            ],
            "min" : [
                0.19411394000053406,
                1.0165467262268066,
                -1.2074072360992432
            ],
            "type" : "VEC3"
        },
        {
            "bufferView" : 8,
            "componentType" : 5126,
            "count" : 297,
            "type" : "VEC3"
        },
        {
            "bufferView" : 9,
            "componentType" : 5126,
            "count" : 297,
            "type" : "VEC2"
        },
        {
            "bufferView" : 10,
            "componentType" : 5123,
            "count" : 1512,
            "type" : "SCALAR"
        },
        {
            "bufferView" : 11,
            "componentType" : 5126,
            "count" : 705,
            "max" : [
                0.8678871989250183,
                0.9439861178398132,
                0.70916748046875
            ],
            "min" : [
                -0.8678871989250183,
                -0.8987162113189697,
                -0.7236716747283936
            ],
            "type" : "VEC3"
        },
        {
            "bufferView" : 12,
            "componentType" : 5126,
            "count" : 705,
            "type" : "VEC3"
        },
        {
            "bufferView" : 13,
            "componentType" : 5126,
            "count" : 705,
            "type" : "VEC2"
        },
        {
            "bufferView" : 14,
            "componentType" : 5123,
            "count" : 3840,
            "type" : "SCALAR"
        },
        {
            "bufferView" : 15,
            "componentType" : 5126,
            "count" : 705,
            "max" : [
                0.8678871989250183,
                0.9439861178398132,
                0.70916748046875
            ],
            "min" : [
                -0.8678871989250183,
                -0.8987162113189697,
                -0.7236716747283936
            ],
            "type" : "VEC3"
        },
        {
            "bufferView" : 16,
            "componentType" : 5126,
            "count" : 705,
            "type" : "VEC3"
        },
        {
            "bufferView" : 17,
            "componentType" : 5126,
            "count" : 705,
            "type" : "VEC2"
        },
        {
            "bufferView" : 18,
            "componentType" : 5126,
            "count" : 705,
            "max" : [
                0.8678871989250183,
                0.9439861178398132,
                0.70916748046875
            ],
            "min" : [
                -0.8678871989250183,
                -0.8987162113189697,
                -0.7236716747283936
            ],
            "type" : "VEC3"
        },
        {
            "bufferView" : 19,
            "componentType" : 5126,
            "count" : 705,
            "type" : "VEC3"
        },
        {
            "bufferView" : 20,
            "componentType" : 5126,
            "count" : 705,
            "type" : "VEC2"
        },
        {
            "bufferView" : 21,
            "componentType" : 5126,
            "count" : 705,
            "max" : [
                0.8678871989250183,
                0.9439861178398132,
                0.70916748046875
            ],
            "min" : [
                -0.8678871989250183,
                -0.8987162113189697,
                -0.7236716747283936
            ],
            "type" : "VEC3"
        },
        {
            "bufferView" : 22,
            "componentType" : 5126,
            "count" : 705,
            "type" : "VEC3"
        },
        {
            "bufferView" : 23,
            "componentType" : 5126,
            "count" : 705,
            "type" : "VEC2"
        },
        {
            "bufferView" : 24,
            "componentType" : 5126,
            "count" : 705,
            "max" : [
                0.8678871989250183,
                0.9439861178398132,
                0.70916748046875
            ],
            "min" : [
                -0.8678871989250183,
                -0.8987162113189697,
                -0.7236716747283936
            ],
            "type" : "VEC3"
        },
        {
            "bufferView" : 25,
            "componentType" : 5126,
            "count" : 705,
            "type" : "VEC3"
        },
        {
            "bufferView" : 26,
            "componentType" : 5126,
            "count" : 705,
            "type" : "VEC2"
        },
        {
            "bufferView" : 27,
            "componentType" : 5126,
            "count" : 705,
            "max" : [
                0.8678871989250183,
                0.9439861178398132,
                0.70916748046875
            ],
            "min" : [
                -0.8678871989250183,
                -0.8987162113189697,
                -0.7236716747283936
            ],
            "type" : "VEC3"
        },
        {
            "bufferView" : 28,
            "componentType" : 5126,
            "count" : 705,
            "type" : "VEC3"
        },
        {
            "bufferView" : 29,
            "componentType" : 5126,
            "count" : 705,
            "type" : "VEC2"
        }
    ],
    "bufferViews" : [
        {
            "buffer" : 0,
            "byteLength" : 9612,
            "byteOffset" : 0
        },
        {
            "buffer" : 0,
            "byteLength" : 9612,
            "byteOffset" : 9612
        },
        {
            "buffer" : 0,
            "byteLength" : 9216,
            "byteOffset" : 19224
        },
        {
            "buffer" : 0,
            "byteLength" : 9612,
            "byteOffset" : 28440
        },
        {
            "buffer" : 0,
            "byteLength" : 9612,
            "byteOffset" : 38052
        },
        {
            "buffer" : 0,
            "byteLength" : 9612,
            "byteOffset" : 47664
        },
        {
            "buffer" : 0,
            "byteLength" : 9612,
            "byteOffset" : 57276
        },
        {
            "buffer" : 0,
            "byteLength" : 3564,
            "byteOffset" : 66888
        },
        {
            "buffer" : 0,
            "byteLength" : 3564,
            "byteOffset" : 70452
        },
        {
            "buffer" : 0,
            "byteLength" : 2376,
            "byteOffset" : 74016
        },
        {
            "buffer" : 0,
            "byteLength" : 3024,
            "byteOffset" : 76392
        },
        {
            "buffer" : 0,
            "byteLength" : 8460,
            "byteOffset" : 79416
        },
        {
            "buffer" : 0,
            "byteLength" : 8460,
            "byteOffset" : 87876
        },
        {
            "buffer" : 0,
            "byteLength" : 5640,
            "byteOffset" : 96336
        },
        {
            "buffer" : 0,
            "byteLength" : 7680,
            "byteOffset" : 101976
        },
        {
            "buffer" : 0,
            "byteLength" : 8460,
            "byteOffset" : 109656
        },
        {
            "buffer" : 0,
            "byteLength" : 8460,
            "byteOffset" : 118116
        },
        {
            "buffer" : 0,
            "byteLength" : 5640,
            "byteOffset" : 126576
        },
        {
            "buffer" : 0,
            "byteLength" : 8460,
            "byteOffset" : 132216
        },
        {
            "buffer" : 0,
            "byteLength" : 8460,
            "byteOffset" : 140676
        },
        {
            "buffer" : 0,
            "byteLength" : 5640,
            "byteOffset" : 149136
        },
        {
            "buffer" : 0,
            "byteLength" : 8460,
            "byteOffset" : 154776
        },
        {
            "buffer" : 0,
            "byteLength" : 8460,
            "byteOffset" : 163236
        },
        {
            "buffer" : 0,
            "byteLength" : 5640,
            "byteOffset" : 171696
        },
        {
            "buffer" : 0,
            "byteLength" : 8460,
            "byteOffset" : 177336
        },
        {
            "buffer" : 0,
            "byteLength" : 8460,
            "byteOffset" : 185796
        },
        {
            "buffer" : 0,
            "byteLength" : 5640,
            "byteOffset" : 194256
        },
        {
            "buffer" : 0,
            "byteLength" : 8460,
            "byteOffset" : 199896
        },
        {
            "buffer" : 0,
            "byteLength" : 8460,
            "byteOffset" : 208356
        },
        {
            "buffer" : 0,
            "byteLength" : 5640,
            "byteOffset" : 216816
        }
    ],
    "buffers" : [
        {
            "byteLength" : 222456,
            "uri" : "data:application/octet-stream;base64,"
        }
    ]
}
