{
    "asset" : {
        "generator" : "Khronos glTF Blender I/O v1.8.19",
        "version" : "2.0"
    },
    "scene" : 0,
    "scenes" : [
        {
            "name" : "Scene",
            "nodes" : [
                0,
                1,
                2,
                3,
                4
            ]
        }
    ],
    "nodes" : [
        {
            "mesh" : 0,
            "name" : "Roundcube.003",
            "rotation" : [
                0.12006159126758575,
                -0.9280238151550293,
                0.12347234040498734,
                0.3303203880786896
            ],
            "scale" : [
                0.06565655767917633,
                0.06565654277801514,
                0.06565655767917633
            ],
            "translation" : [
                0.2303055077791214,
                4.3804850578308105,
                1.2696903944015503
            ]
        },
        {
            "mesh" : 1,
            "name" : "Roundcube.002",
            "rotation" : [
                -0.010907638818025589,
                0.9884898066520691,
                -0.03664478659629822,
                -0.14637647569179535
            ],
            "scale" : [
                0.06565652787685394,
                0.06565655767917633,
                0.06565656512975693
            ],
            "translation" : [
                -0.050654441118240356,
                4.382350444793701,
                1.395715594291687
            ]
        },
        {
            "mesh" : 2,
            "name" : "Roundcube",
            "rotation" : [
                0,
                0.20470549166202545,
                0,
                0.9788236021995544
            ],
            "scale" : [
                0.7482158541679382,
                0.7482158541679382,
                0.7482158541679382
            ],
            "translation" : [
                -0.17224766314029694,
                4.08172082901001,
                0.7361371517181396
            ]
        },
        {
            "mesh" : 3,
            "name" : "mouth.001",
            "rotation" : [
                -0.35923004150390625,
                0.35745638608932495,
                0.5888555645942688,
                -0.629625141620636
            ],
            "scale" : [
                0.06976885348558426,
                0.06976883858442307,
                0.05939719080924988
            ],
            "translation" : [
                0.08561423420906067,
                4.338193416595459,
                1.3168219327926636
            ]
        },
        {
            "mesh" : 4,
            "name" : "Torus",
            "rotation" : [
                -0.05412248522043228,
                0.14267852902412415,
                -0.15588349103927612,
                0.9759169816970825
            ],
            "scale" : [
                1.0563045740127563,
                0.4311584234237671,
                1.0563045740127563
            ],
            "translation" : [
                -0.2190929502248764,
                4.087837219238281,
                0.7544019818305969
            ]
        }
    ],
    "materials" : [
        {
            "doubleSided" : true,
            "name" : "NOIR",
            "pbrMetallicRoughness" : {
                "baseColorFactor" : [
                    0,
                    0,
                    0,
                    1
                ],
                "metallicFactor" : 0,
                "roughnessFactor" : 0.5
            }
        },
        {
            "doubleSided" : true,
            "name" : "Material.007",
            "pbrMetallicRoughness" : {
                "baseColorFactor" : [
                    0.8000000715255737,
                    0.36854687333106995,
                    0.7993947863578796,
                    1
                ],
                "metallicFactor" : 0,
                "roughnessFactor" : 0.5
            }
        },
        {
            "doubleSided" : true,
            "name" : "Material.001",
            "pbrMetallicRoughness" : {
                "baseColorFactor" : [
                    0.11648086458444595,
                    0.11687497794628143,
                    0.8000000715255737,
                    1
                ],
                "metallicFactor" : 0,
                "roughnessFactor" : 0.5
            }
        }
    ],
    "meshes" : [
        {
            "name" : "Mesh",
            "primitives" : [
                {
                    "attributes" : {
                        "POSITION" : 0,
                        "NORMAL" : 1
                    },
                    "indices" : 2,
                    "material" : 0
                }
            ]
        },
        {
            "name" : "Mesh",
            "primitives" : [
                {
                    "attributes" : {
                        "POSITION" : 3,
                        "NORMAL" : 4
                    },
                    "indices" : 2,
                    "material" : 0
                }
            ]
        },
        {
            "name" : "Mesh",
            "primitives" : [
                {
                    "attributes" : {
                        "POSITION" : 5,
                        "NORMAL" : 6
                    },
                    "indices" : 7,
                    "material" : 1
                }
            ]
        },
        {
            "name" : "Torus.001",
            "primitives" : [
                {
                    "attributes" : {
                        "POSITION" : 8,
                        "NORMAL" : 9,
                        "TEXCOORD_0" : 10
                    },
                    "indices" : 11,
                    "material" : 0
                }
            ]
        },
        {
            "name" : "Mesh",
            "primitives" : [
                {
                    "attributes" : {
                        "POSITION" : 12,
                        "NORMAL" : 13,
                        "TEXCOORD_0" : 14
                    },
                    "indices" : 15,
                    "material" : 2
                }
            ]
        }
    ],
    "accessors" : [
        {
            "bufferView" : 0,
            "componentType" : 5126,
            "count" : 801,
            "max" : [
                0.9784715175628662,
                0.9784715175628662,
                -0.323743611574173
            ],
            "min" : [
                -0.9784715175628662,
                -0.9784715175628662,
                -0.7530725002288818
            ],
            "type" : "VEC3"
        },
        {
            "bufferView" : 1,
            "componentType" : 5126,
            "count" : 801,
            "type" : "VEC3"
        },
        {
            "bufferView" : 2,
            "componentType" : 5123,
            "count" : 4608,
            "type" : "SCALAR"
        },
        {
            "bufferView" : 3,
            "componentType" : 5126,
            "count" : 801,
            "max" : [
                0.9784715175628662,
                0.9784715175628662,
                -0.323743611574173
            ],
            "min" : [
                -0.9784715175628662,
                -0.9784715175628662,
                -0.7530725002288818
            ],
            "type" : "VEC3"
        },
        {
            "bufferView" : 4,
            "componentType" : 5126,
            "count" : 801,
            "type" : "VEC3"
        },
        {
            "bufferView" : 5,
            "componentType" : 5126,
            "count" : 1538,
            "max" : [
                0.9577365517616272,
                0.9577365517616272,
                0.9577365517616272
            ],
            "min" : [
                -0.9577365517616272,
                -0.9577365517616272,
                -0.9577365517616272
            ],
            "type" : "VEC3"
        },
        {
            "bufferView" : 6,
            "componentType" : 5126,
            "count" : 1538,
            "type" : "VEC3"
        },
        {
            "bufferView" : 7,
            "componentType" : 5123,
            "count" : 9216,
            "type" : "SCALAR"
        },
        {
            "bufferView" : 8,
            "componentType" : 5126,
            "count" : 297,
            "max" : [
                1.25,
                1.5165467262268066,
                1.2074074745178223
            ],
            "min" : [
                0.19411394000053406,
                1.0165467262268066,
                -1.2074072360992432
            ],
            "type" : "VEC3"
        },
        {
            "bufferView" : 9,
            "componentType" : 5126,
            "count" : 297,
            "type" : "VEC3"
        },
        {
            "bufferView" : 10,
            "componentType" : 5126,
            "count" : 297,
            "type" : "VEC2"
        },
        {
            "bufferView" : 11,
            "componentType" : 5123,
            "count" : 1512,
            "type" : "SCALAR"
        },
        {
            "bufferView" : 12,
            "componentType" : 5126,
            "count" : 9792,
            "max" : [
                1.2353026866912842,
                0.23883549869060516,
                1.2353025674819946
            ],
            "min" : [
                -1.2353029251098633,
                -0.23883549869060516,
                -1.2353026866912842
            ],
            "type" : "VEC3"
        },
        {
            "bufferView" : 13,
            "componentType" : 5126,
            "count" : 9792,
            "type" : "VEC3"
        },
        {
            "bufferView" : 14,
            "componentType" : 5126,
            "count" : 9792,
            "type" : "VEC2"
        },
        {
            "bufferView" : 15,
            "componentType" : 5123,
            "count" : 55296,
            "type" : "SCALAR"
        }
    ],
    "bufferViews" : [
        {
            "buffer" : 0,
            "byteLength" : 9612,
            "byteOffset" : 0
        },
        {
            "buffer" : 0,
            "byteLength" : 9612,
            "byteOffset" : 9612
        },
        {
            "buffer" : 0,
            "byteLength" : 9216,
            "byteOffset" : 19224
        },
        {
            "buffer" : 0,
            "byteLength" : 9612,
            "byteOffset" : 28440
        },
        {
            "buffer" : 0,
            "byteLength" : 9612,
            "byteOffset" : 38052
        },
        {
            "buffer" : 0,
            "byteLength" : 18456,
            "byteOffset" : 47664
        },
        {
            "buffer" : 0,
            "byteLength" : 18456,
            "byteOffset" : 66120
        },
        {
            "buffer" : 0,
            "byteLength" : 18432,
            "byteOffset" : 84576
        },
        {
            "buffer" : 0,
            "byteLength" : 3564,
            "byteOffset" : 103008
        },
        {
            "buffer" : 0,
            "byteLength" : 3564,
            "byteOffset" : 106572
        },
        {
            "buffer" : 0,
            "byteLength" : 2376,
            "byteOffset" : 110136
        },
        {
            "buffer" : 0,
            "byteLength" : 3024,
            "byteOffset" : 112512
        },
        {
            "buffer" : 0,
            "byteLength" : 117504,
            "byteOffset" : 115536
        },
        {
            "buffer" : 0,
            "byteLength" : 117504,
            "byteOffset" : 233040
        },
        {
            "buffer" : 0,
            "byteLength" : 78336,
            "byteOffset" : 350544
        },
        {
            "buffer" : 0,
            "byteLength" : 110592,
            "byteOffset" : 428880
        }
    ],
    "buffers" : [
        {
            "byteLength" : 539472,
            "uri" : "data:application/octet-stream;base64,"
        }
    ]
}
