{
    "asset" : {
        "generator" : "Khronos glTF Blender I/O v1.8.19",
        "version" : "2.0"
    },
    "scene" : 0,
    "scenes" : [
        {
            "name" : "Scene",
            "nodes" : [
                0,
                1,
                2,
                3,
                4
            ]
        }
    ],
    "nodes" : [
        {
            "mesh" : 0,
            "name" : "Cube.001",
            "rotation" : [
                0.7780100107192993,
                -0.1220649778842926,
                0.10567007213830948,
                0.6071527004241943
            ],
            "scale" : [
                0.23965182900428772,
                0.23965182900428772,
                0.23965182900428772
            ],
            "translation" : [
                0.06661267578601837,
                4.011763095855713,
                0.9651473760604858
            ]
        },
        {
            "mesh" : 1,
            "name" : "Roundcube",
            "rotation" : [
                0.12081439793109894,
                -0.1610330045223236,
                -0.01159293670207262,
                0.9794579148292542
            ],
            "scale" : [
                0.5067541003227234,
                0.5067541003227234,
                0.5067541003227234
            ],
            "translation" : [
                0.09213697910308838,
                4.030444622039795,
                0.8914464116096497
            ]
        },
        {
            "mesh" : 2,
            "name" : "Roundcube.003",
            "rotation" : [
                0.07172543555498123,
                -0.996055543422699,
                0.037842247635126114,
                -0.03601045161485672
            ],
            "scale" : [
                0.04446810111403465,
                0.04446807876229286,
                0.04446808621287346
            ],
            "translation" : [
                0.04968123883008957,
                4.030581951141357,
                1.3559582233428955
            ]
        },
        {
            "mesh" : 3,
            "name" : "Roundcube.002",
            "rotation" : [
                0.02172660455107689,
                0.9721574783325195,
                0.08199982345104218,
                0.21843500435352325
            ],
            "scale" : [
                0.04446806013584137,
                0.04446810111403465,
                0.04446808621287346
            ],
            "translation" : [
                -0.14863280951976776,
                4.044205665588379,
                1.2928466796875
            ]
        },
        {
            "mesh" : 4,
            "name" : "mouth.001",
            "rotation" : [
                -0.6035070419311523,
                0.5011217594146729,
                0.4806249439716339,
                -0.39198970794677734
            ],
            "scale" : [
                0.04725327342748642,
                0.04725327342748642,
                0.04022873193025589
            ],
            "translation" : [
                -0.04389285296201706,
                4.011437892913818,
                1.3077890872955322
            ]
        }
    ],
    "materials" : [
        {
            "doubleSided" : true,
            "name" : "Material.006",
            "pbrMetallicRoughness" : {
                "baseColorFactor" : [
                    0.8000000715255737,
                    0.24925512075424194,
                    0.02914760261774063,
                    1
                ],
                "metallicFactor" : 0,
                "roughnessFactor" : 0.5
            }
        },
        {
            "doubleSided" : true,
            "name" : "Material.007",
            "pbrMetallicRoughness" : {
                "baseColorFactor" : [
                    0.8000000715255737,
                    0.7912083864212036,
                    0.05571439489722252,
                    1
                ],
                "metallicFactor" : 0,
                "roughnessFactor" : 0.5
            }
        },
        {
            "doubleSided" : true,
            "name" : "NOIR",
            "pbrMetallicRoughness" : {
                "baseColorFactor" : [
                    0,
                    0,
                    0,
                    1
                ],
                "metallicFactor" : 0,
                "roughnessFactor" : 0.5
            }
        }
    ],
    "meshes" : [
        {
            "name" : "Cube.002",
            "primitives" : [
                {
                    "attributes" : {
                        "POSITION" : 0,
                        "NORMAL" : 1,
                        "TEXCOORD_0" : 2
                    },
                    "indices" : 3,
                    "material" : 0
                }
            ]
        },
        {
            "name" : "Mesh",
            "primitives" : [
                {
                    "attributes" : {
                        "POSITION" : 4,
                        "NORMAL" : 5
                    },
                    "indices" : 6,
                    "material" : 1
                }
            ]
        },
        {
            "name" : "Mesh",
            "primitives" : [
                {
                    "attributes" : {
                        "POSITION" : 7,
                        "NORMAL" : 8
                    },
                    "indices" : 9,
                    "material" : 2
                }
            ]
        },
        {
            "name" : "Mesh",
            "primitives" : [
                {
                    "attributes" : {
                        "POSITION" : 10,
                        "NORMAL" : 11
                    },
                    "indices" : 9,
                    "material" : 2
                }
            ]
        },
        {
            "name" : "Torus.001",
            "primitives" : [
                {
                    "attributes" : {
                        "POSITION" : 12,
                        "NORMAL" : 13,
                        "TEXCOORD_0" : 14
                    },
                    "indices" : 15,
                    "material" : 2
                }
            ]
        }
    ],
    "accessors" : [
        {
            "bufferView" : 0,
            "componentType" : 5126,
            "count" : 8192,
            "max" : [
                3.8847246170043945,
                -0.02301035448908806,
                3.8847243785858154
            ],
            "min" : [
                -3.88472580909729,
                -0.6710892915725708,
                -3.884726047515869
            ],
            "type" : "VEC3"
        },
        {
            "bufferView" : 1,
            "componentType" : 5126,
            "count" : 8192,
            "type" : "VEC3"
        },
        {
            "bufferView" : 2,
            "componentType" : 5126,
            "count" : 8192,
            "type" : "VEC2"
        },
        {
            "bufferView" : 3,
            "componentType" : 5123,
            "count" : 49152,
            "type" : "SCALAR"
        },
        {
            "bufferView" : 4,
            "componentType" : 5126,
            "count" : 1538,
            "max" : [
                0.9577365517616272,
                0.9577365517616272,
                0.9577365517616272
            ],
            "min" : [
                -0.9577365517616272,
                -0.9577365517616272,
                -0.9577365517616272
            ],
            "type" : "VEC3"
        },
        {
            "bufferView" : 5,
            "componentType" : 5126,
            "count" : 1538,
            "type" : "VEC3"
        },
        {
            "bufferView" : 6,
            "componentType" : 5123,
            "count" : 9216,
            "type" : "SCALAR"
        },
        {
            "bufferView" : 7,
            "componentType" : 5126,
            "count" : 801,
            "max" : [
                0.9784715175628662,
                0.9784715175628662,
                -0.323743611574173
            ],
            "min" : [
                -0.9784715175628662,
                -0.9784715175628662,
                -0.7530725002288818
            ],
            "type" : "VEC3"
        },
        {
            "bufferView" : 8,
            "componentType" : 5126,
            "count" : 801,
            "type" : "VEC3"
        },
        {
            "bufferView" : 9,
            "componentType" : 5123,
            "count" : 4608,
            "type" : "SCALAR"
        },
        {
            "bufferView" : 10,
            "componentType" : 5126,
            "count" : 801,
            "max" : [
                0.9784715175628662,
                0.9784715175628662,
                -0.323743611574173
            ],
            "min" : [
                -0.9784715175628662,
                -0.9784715175628662,
                -0.7530725002288818
            ],
            "type" : "VEC3"
        },
        {
            "bufferView" : 11,
            "componentType" : 5126,
            "count" : 801,
            "type" : "VEC3"
        },
        {
            "bufferView" : 12,
            "componentType" : 5126,
            "count" : 297,
            "max" : [
                1.25,
                1.5165467262268066,
                1.2074074745178223
            ],
            "min" : [
                0.19411394000053406,
                1.0165467262268066,
                -1.2074072360992432
            ],
            "type" : "VEC3"
        },
        {
            "bufferView" : 13,
            "componentType" : 5126,
            "count" : 297,
            "type" : "VEC3"
        },
        {
            "bufferView" : 14,
            "componentType" : 5126,
            "count" : 297,
            "type" : "VEC2"
        },
        {
            "bufferView" : 15,
            "componentType" : 5123,
            "count" : 1512,
            "type" : "SCALAR"
        }
    ],
    "bufferViews" : [
        {
            "buffer" : 0,
            "byteLength" : 98304,
            "byteOffset" : 0
        },
        {
            "buffer" : 0,
            "byteLength" : 98304,
            "byteOffset" : 98304
        },
        {
            "buffer" : 0,
            "byteLength" : 65536,
            "byteOffset" : 196608
        },
        {
            "buffer" : 0,
            "byteLength" : 98304,
            "byteOffset" : 262144
        },
        {
            "buffer" : 0,
            "byteLength" : 18456,
            "byteOffset" : 360448
        },
        {
            "buffer" : 0,
            "byteLength" : 18456,
            "byteOffset" : 378904
        },
        {
            "buffer" : 0,
            "byteLength" : 18432,
            "byteOffset" : 397360
        },
        {
            "buffer" : 0,
            "byteLength" : 9612,
            "byteOffset" : 415792
        },
        {
            "buffer" : 0,
            "byteLength" : 9612,
            "byteOffset" : 425404
        },
        {
            "buffer" : 0,
            "byteLength" : 9216,
            "byteOffset" : 435016
        },
        {
            "buffer" : 0,
            "byteLength" : 9612,
            "byteOffset" : 444232
        },
        {
            "buffer" : 0,
            "byteLength" : 9612,
            "byteOffset" : 453844
        },
        {
            "buffer" : 0,
            "byteLength" : 3564,
            "byteOffset" : 463456
        },
        {
            "buffer" : 0,
            "byteLength" : 3564,
            "byteOffset" : 467020
        },
        {
            "buffer" : 0,
            "byteLength" : 2376,
            "byteOffset" : 470584
        },
        {
            "buffer" : 0,
            "byteLength" : 3024,
            "byteOffset" : 472960
        }
    ],
    "buffers" : [
        {
            "byteLength" : 475984,
            "uri" : "data:application/octet-stream;base64,"
        }
    ]
}
